<?xml version="1.0" standalone="no"?>
<!DOCTYPE svg PUBLIC "-//W3C//DTD SVG 20010904//EN"
 "http://www.w3.org/TR/2001/REC-SVG-20010904/DTD/svg10.dtd">
<svg version="1.0" xmlns="http://www.w3.org/2000/svg"
 width="3722.000000pt" height="3722.000000pt" viewBox="0 0 3722.000000 3722.000000"
 preserveAspectRatio="xMidYMid meet">
<metadata>
Created by potrace 1.11, written by Peter Selinger 2001-2013
</metadata>
<g transform="translate(0.000000,3722.000000) scale(0.100000,-0.100000)"
fill="#000000" stroke="none">
<path d="M0 18610 l0 -16000 4185 0 4185 0 2 8237 3 8237 90 -147 c50 -81 95
-155 100 -165 10 -18 302 -495 363 -592 18 -30 65 -107 104 -170 39 -63 94
-153 123 -200 116 -188 299 -487 314 -512 19 -31 169 -277 191 -313 8 -13 49
-79 90 -146 85 -138 84 -137 200 -326 46 -76 178 -291 293 -478 115 -187 218
-354 228 -372 9 -17 47 -78 82 -135 84 -135 437 -710 459 -748 29 -50 179
-294 197 -320 10 -14 32 -50 49 -80 18 -30 38 -64 45 -74 73 -116 147 -238
147 -242 0 -2 20 -35 44 -72 46 -72 153 -244 170 -277 6 -11 23 -38 37 -60 32
-48 344 -557 369 -600 10 -16 41 -68 70 -115 29 -47 71 -114 92 -150 22 -36
77 -126 123 -200 46 -74 124 -202 174 -285 51 -82 124 -203 164 -267 100 -162
265 -431 307 -501 54 -88 193 -315 212 -345 10 -15 27 -43 38 -62 11 -19 28
-47 38 -62 9 -15 45 -74 80 -130 34 -57 103 -168 152 -248 49 -80 100 -163
113 -185 13 -22 59 -98 103 -168 43 -71 86 -140 95 -155 9 -15 60 -99 114
-187 54 -88 147 -241 208 -340 105 -171 129 -211 173 -280 10 -16 23 -38 29
-47 23 -40 161 -267 191 -313 37 -59 136 -221 469 -765 136 -223 258 -421 270
-440 21 -32 375 -609 471 -768 22 -37 71 -116 109 -177 72 -117 84 -136 129
-212 28 -46 288 -470 463 -755 l85 -138 2017 0 2017 0 74 125 c41 69 80 133
85 143 6 9 51 85 100 167 50 83 92 155 95 160 3 6 86 145 185 310 99 165 182
305 185 310 10 20 183 311 205 345 12 19 102 170 200 335 98 165 208 350 244
410 37 61 71 117 75 125 4 8 12 24 19 35 66 108 1186 1986 1227 2056 8 14 47
79 85 143 39 64 77 129 86 144 9 15 94 158 189 317 95 160 181 304 191 320 10
17 29 49 41 73 12 23 26 42 30 42 4 0 8 4 8 9 0 4 19 41 43 80 23 40 50 86 59
102 10 16 66 109 124 207 59 97 118 197 132 222 13 25 31 52 38 61 8 8 14 18
14 21 0 4 24 46 54 95 29 48 160 268 291 488 229 386 296 498 322 540 20 32
52 87 331 555 145 245 297 499 337 565 40 66 132 221 205 345 73 124 143 241
155 260 21 33 227 379 265 445 10 17 91 154 182 305 91 151 173 289 182 305 9
17 25 44 35 60 39 64 235 392 251 420 10 17 93 156 185 310 158 265 267 449
290 487 5 10 79 134 164 275 329 552 367 614 382 641 9 15 87 146 174 292 87
146 172 289 189 318 120 205 490 821 493 818 3 -3 6 -513 18 -2691 10 -1873
15 -2742 20 -3720 11 -2098 15 -2855 30 -5640 3 -511 7 -1333 10 -1825 11
-1779 13 -2182 14 -2617 l1 -443 4164 0 4165 0 0 16000 0 16000 -3776 -2
-3776 -3 -52 -87 c-29 -47 -55 -92 -59 -100 -4 -7 -17 -29 -29 -50 -12 -20
-38 -62 -57 -95 -19 -32 -41 -70 -50 -84 -15 -26 -86 -146 -105 -177 -5 -10
-48 -81 -95 -160 -47 -78 -94 -157 -104 -174 -60 -101 -475 -800 -566 -953
-338 -568 -394 -663 -410 -690 -28 -50 -239 -405 -285 -480 -33 -55 -252 -424
-381 -642 -11 -17 -35 -57 -54 -90 -19 -32 -39 -67 -46 -78 -6 -11 -69 -117
-140 -235 -71 -118 -134 -224 -140 -235 -12 -21 -140 -237 -299 -505 -253
-425 -319 -536 -329 -555 -12 -22 -255 -429 -396 -665 -82 -137 -193 -324
-215 -363 -5 -9 -59 -99 -119 -200 -60 -100 -137 -228 -170 -285 -34 -57 -68
-115 -77 -130 -29 -49 -207 -349 -303 -510 -51 -87 -100 -169 -107 -182 -8
-14 -19 -32 -25 -40 -6 -8 -23 -35 -36 -60 -23 -41 -99 -169 -318 -535 -42
-71 -150 -254 -240 -405 -90 -151 -203 -342 -253 -425 -49 -82 -101 -170 -115
-195 -14 -25 -33 -56 -42 -70 -9 -14 -19 -29 -21 -35 -3 -8 -127 -217 -169
-285 -6 -8 -92 -154 -193 -325 -101 -170 -199 -336 -218 -367 -19 -32 -81
-137 -139 -234 -58 -97 -115 -193 -126 -213 -134 -226 -194 -328 -201 -337 -4
-5 -15 -23 -24 -40 -9 -16 -74 -126 -144 -244 -222 -373 -346 -582 -409 -688
-34 -57 -68 -115 -77 -130 -18 -30 -305 -513 -456 -767 -52 -88 -115 -194
-140 -235 -25 -41 -55 -93 -68 -115 -33 -58 -381 -644 -404 -680 -20 -32 -213
-357 -293 -495 -28 -47 -60 -101 -73 -120 -13 -19 -33 -54 -46 -77 -25 -45
-127 -216 -369 -623 -284 -477 -565 -950 -575 -967 -5 -10 -20 -34 -31 -53
-12 -19 -79 -132 -149 -250 -70 -118 -146 -246 -169 -285 -49 -83 -47 -79
-115 -197 -30 -51 -59 -99 -65 -107 -6 -7 -24 -38 -41 -67 -16 -29 -64 -111
-106 -181 -158 -266 -392 -659 -413 -694 -11 -20 -41 -70 -66 -112 -25 -42
-47 -77 -50 -77 -3 0 -24 30 -46 68 -23 37 -110 180 -194 317 -159 260 -288
472 -305 502 -6 10 -17 29 -26 43 -9 14 -55 88 -101 165 -158 261 -407 669
-604 990 -54 88 -102 169 -108 180 -11 20 -186 308 -256 420 -21 33 -109 177
-196 320 -86 143 -220 364 -297 490 -77 127 -196 321 -264 433 -213 351 -513
844 -562 922 -62 101 -69 113 -77 130 -4 8 -15 26 -25 40 -9 14 -63 102 -119
195 -57 94 -117 193 -135 220 -18 28 -43 69 -56 92 -13 23 -62 104 -109 180
-149 243 -186 305 -288 473 -55 91 -118 194 -141 230 -22 36 -59 97 -82 135
-50 83 -169 279 -304 500 -54 88 -105 172 -114 187 -9 15 -77 128 -152 250
-219 360 -391 641 -408 670 -9 15 -47 78 -85 140 -93 153 -365 598 -817 1343
-208 341 -391 643 -408 670 -32 52 -121 198 -279 457 -51 84 -143 233 -203
331 -60 98 -109 181 -109 184 0 3 -10 18 -21 35 -12 16 -70 109 -128 206 -241
398 -314 518 -332 544 -11 14 -19 29 -19 33 0 3 -18 33 -40 66 -22 33 -40 62
-40 64 0 2 -27 47 -60 100 -33 53 -60 98 -60 100 0 2 -13 23 -29 47 -16 24
-38 59 -49 78 -18 32 -107 179 -325 535 -44 72 -87 144 -97 160 -16 29 -88
147 -311 510 -57 93 -107 176 -112 185 -4 8 -15 27 -25 42 -9 15 -50 82 -91
150 -41 68 -105 172 -143 231 -37 60 -68 111 -68 114 0 2 -22 39 -49 81 -45
71 -131 212 -175 285 -35 61 -359 592 -393 647 -19 30 -143 233 -275 450 -132
217 -292 481 -355 585 -64 105 -160 262 -213 350 -54 88 -135 221 -180 295
-46 74 -99 162 -118 195 -19 33 -49 83 -67 110 -17 28 -71 115 -120 195 -48
80 -98 161 -110 180 -12 19 -100 164 -196 322 l-174 288 -3727 0 -3728 0 0
-16000z"/>
</g>
</svg>
